<?xml version="1.0" standalone="no"?>
<!DOCTYPE svg PUBLIC "-//W3C//DTD SVG 20010904//EN"
 "http://www.w3.org/TR/2001/REC-SVG-20010904/DTD/svg10.dtd">
<svg version="1.0" xmlns="http://www.w3.org/2000/svg"
 width="1280.000000pt" height="1152.000000pt" viewBox="0 0 1280.000000 1152.000000"
 preserveAspectRatio="xMidYMid meet">
<g transform="translate(0.000000,1152.000000) scale(0.100000,-0.100000)"
fill="#000000" stroke="none">
<path d="M5115 11023 l-440 -496 -175 -69 c-509 -199 -1283 -486 -1904 -706
l-250 -88 -28 -69 c-15 -39 -88 -225 -163 -414 -634 -1600 -1288 -2823 -2047
-3829 -59 -79 -108 -148 -108 -153 0 -12 147 -219 246 -345 433 -555 1009
-997 1688 -1295 l99 -43 48 54 c426 475 705 1046 879 1795 52 225 51 221 60
204 7 -11 -94 -4111 -123 -5022 l-4 -138 388 -194 c213 -107 390 -199 394
-205 9 -14 5728 -14 5753 0 9 6 244 69 522 141 278 72 509 134 513 138 4 4 -4
198 -18 432 -25 432 -82 1402 -135 2329 -16 283 -35 587 -40 674 -7 110 -7
163 0 170 12 12 -7 34 195 -219 93 -115 174 -216 180 -223 10 -11 90 26 438
207 599 310 832 453 1062 652 277 239 482 522 600 827 20 52 41 102 47 111 8
13 -21 81 -146 336 -86 176 -581 1191 -1100 2255 l-943 1935 -1004 336 c-580
193 -1013 343 -1026 355 -20 18 -700 1014 -710 1041 -4 11 -211 13 -1157 13
l-1151 0 -440 -497z"/>
</g>
</svg>
