<?xml version="1.0" standalone="no"?>
<!DOCTYPE svg PUBLIC "-//W3C//DTD SVG 20010904//EN"
 "http://www.w3.org/TR/2001/REC-SVG-20010904/DTD/svg10.dtd">
<svg version="1.0" xmlns="http://www.w3.org/2000/svg"
 width="640.000000pt" height="1280.000000pt" viewBox="0 0 640.000000 1280.000000"
 preserveAspectRatio="xMidYMid meet">
<g transform="translate(0.000000,1280.000000) scale(0.100000,-0.100000)"
fill="#000000" stroke="none">
<path d="M3156 12725 c-109 -107 -166 -224 -166 -339 0 -82 13 -123 61 -194
l40 -60 -3 -143 -3 -143 -45 -11 c-64 -16 -72 -36 -64 -166 6 -100 5 -108 -15
-128 -16 -16 -33 -21 -78 -21 -67 0 -376 -27 -413 -36 -14 -3 -46 -12 -71 -20
-43 -14 -52 -13 -163 16 -129 33 -234 39 -298 16 -122 -44 -218 -204 -218
-365 0 -108 44 -215 127 -309 l38 -44 82 42 c63 32 95 43 135 44 l53 1 1 -160
c2 -248 25 -329 219 -775 56 -129 126 -297 155 -372 l53 -137 -23 -53 c-54
-124 -184 -536 -239 -753 -153 -609 -225 -1202 -225 -1855 0 -430 12 -584 75
-908 138 -714 116 -1541 -67 -2512 -156 -828 -440 -1775 -787 -2625 -74 -182
-205 -482 -248 -567 -21 -42 -25 -58 -16 -58 8 0 86 26 173 59 332 122 392
136 556 128 115 -5 251 -34 296 -63 28 -18 22 -31 -54 -114 l-56 -60 176 0
c168 0 176 1 176 19 0 31 15 33 82 10 89 -30 118 -19 230 88 128 120 171 135
266 87 34 -17 82 -58 139 -118 49 -51 102 -101 120 -111 30 -18 32 -18 75 2
24 12 86 53 137 92 116 87 170 114 243 119 81 6 162 -34 262 -129 72 -68 80
-73 129 -76 36 -3 78 3 137 21 74 21 87 23 101 10 12 -11 53 -14 190 -14 l174
0 -59 53 c-39 35 -58 58 -54 68 7 18 195 72 311 90 164 25 341 -10 472 -95 38
-25 71 -43 73 -42 1 2 -15 48 -36 102 -193 485 -458 1295 -611 1866 -306 1141
-451 2200 -412 3008 16 343 37 519 101 860 16 85 35 202 42 260 17 139 17 717
0 905 -52 566 -144 1066 -282 1545 -63 215 -167 514 -231 664 -22 49 -39 97
-39 107 0 27 48 150 158 410 121 284 156 370 188 469 46 141 72 291 75 433 2
102 8 113 74 123 53 7 117 -7 186 -41 27 -14 55 -25 63 -25 22 0 84 77 116
145 39 82 54 178 40 257 -22 121 -100 238 -189 282 -93 47 -160 44 -355 -16
l-98 -30 -72 20 c-132 38 -308 62 -459 62 -121 0 -121 0 -127 159 -3 83 -9
134 -17 142 -7 7 -32 15 -55 18 l-43 6 -3 144 -3 144 35 52 c68 103 82 200 46
316 -10 35 -33 86 -50 113 -42 66 -139 166 -160 166 -10 0 -43 -25 -74 -55z"/>
</g>
</svg>
