<?xml version="1.0" standalone="no"?>
<!DOCTYPE svg PUBLIC "-//W3C//DTD SVG 20010904//EN"
 "http://www.w3.org/TR/2001/REC-SVG-20010904/DTD/svg10.dtd">
<svg version="1.0" xmlns="http://www.w3.org/2000/svg"
 width="1054.000000pt" height="1280.000000pt" viewBox="0 0 1054.000000 1280.000000"
 preserveAspectRatio="xMidYMid meet">
<g transform="translate(0.000000,1280.000000) scale(0.100000,-0.100000)"
fill="#000000" stroke="none">
<path d="M3909 12796 c-3 -3 -54 -12 -113 -21 -179 -27 -214 -53 -327 -240
-75 -124 -191 -359 -217 -440 -53 -164 -40 -196 93 -244 109 -39 142 -56 155
-81 16 -30 -18 -46 -150 -69 -152 -27 -275 -63 -360 -106 -66 -33 -74 -35
-158 -33 -83 3 -91 1 -125 -25 -61 -46 -124 -67 -251 -82 -140 -16 -153 -20
-161 -46 -9 -27 -37 -39 -113 -50 -44 -6 -81 -19 -112 -39 -26 -17 -71 -34
-101 -40 -97 -19 -241 -61 -342 -101 -54 -22 -120 -42 -146 -46 -84 -10 -210
-97 -385 -264 -93 -89 -109 -110 -156 -202 -29 -56 -128 -232 -220 -392 -219
-381 -268 -470 -393 -720 -166 -331 -259 -564 -307 -768 l-23 -98 18 -97 c36
-196 102 -350 178 -418 77 -68 79 -81 41 -234 -44 -182 -37 -216 64 -318 97
-99 258 -199 599 -371 111 -56 246 -130 300 -163 97 -61 128 -84 278 -205 42
-35 85 -63 96 -63 28 0 115 78 244 219 61 67 116 121 122 121 7 0 16 -12 19
-27 81 -346 157 -548 346 -914 107 -210 196 -351 277 -442 103 -116 140 -221
141 -398 0 -87 27 -219 57 -285 23 -51 27 -75 31 -174 2 -63 -3 -221 -12 -350
-8 -129 -22 -354 -31 -500 -24 -412 -42 -527 -95 -608 -16 -24 -34 -69 -40
-100 -15 -75 -64 -197 -165 -411 -131 -279 -309 -696 -349 -816 -44 -136 -69
-246 -91 -395 -24 -168 -53 -294 -87 -384 -45 -117 -57 -169 -68 -291 -13
-137 -24 -171 -60 -190 -16 -8 -31 -23 -35 -34 -10 -31 21 -90 69 -133 31 -26
51 -56 65 -94 12 -30 28 -65 36 -78 18 -27 84 -64 173 -96 63 -23 108 -58 146
-115 51 -75 427 -185 634 -185 74 0 89 3 109 22 29 28 70 26 174 -7 110 -34
320 -49 619 -42 296 6 528 -6 573 -30 28 -16 54 -17 207 -14 381 10 461 8 505
-16 111 -60 620 -64 995 -7 204 31 359 90 514 196 l89 61 35 -39 c136 -153
138 -154 240 -154 134 0 321 41 402 88 35 20 59 26 111 26 57 1 73 6 120 36
109 69 147 84 223 86 80 2 141 21 266 84 174 87 317 198 388 302 79 115 104
261 61 343 -34 63 -48 110 -79 268 -42 211 -57 240 -167 305 -95 57 -134 177
-223 693 -61 350 -88 450 -199 733 -174 443 -186 492 -201 811 -10 204 -24
294 -54 340 -43 65 -48 135 -53 665 l-5 506 92 79 c205 177 310 314 435 570
118 239 176 428 224 725 37 228 74 310 141 310 66 0 115 -39 415 -331 168
-163 162 -162 303 -76 59 35 206 118 327 182 531 285 983 562 1035 636 l22 30
-30 62 c-16 34 -61 120 -101 190 -77 141 -105 209 -96 238 4 11 24 40 45 64
42 49 56 95 46 149 -7 38 4 51 44 51 34 0 37 39 10 152 -78 335 -316 908 -656
1583 -143 283 -195 399 -249 553 -32 90 -232 329 -345 412 -63 46 -108 61
-227 75 -54 6 -152 24 -218 40 -328 78 -1098 335 -1465 488 -128 53 -194 72
-255 72 -56 0 -248 36 -279 52 -28 15 -9 24 84 43 109 22 135 36 150 80 17 52
-2 178 -61 420 -57 230 -161 391 -293 451 -56 26 -216 64 -268 64 l-28 0 0
-192 c-1 -261 -15 -519 -34 -601 -24 -104 -66 -177 -137 -238 -187 -163 -231
-214 -392 -460 -186 -284 -395 -666 -652 -1192 -101 -207 -155 -306 -164 -305
-9 2 -35 66 -68 163 -94 280 -222 693 -234 758 -32 171 -77 293 -190 513 -94
185 -180 320 -283 443 -162 194 -205 275 -226 423 -12 85 -7 155 26 368 34
212 44 321 33 343 -7 13 -22 17 -63 17 -29 0 -55 -2 -57 -4z"/>
</g>
</svg>
